<?xml version="1.0" encoding="UTF-8"?>
<svg version="1.1" xmlns="http://www.w3.org/2000/svg" width="84" height="84">
<path d="M0 0 C27.72 0 55.44 0 84 0 C84 27.72 84 55.44 84 84 C56.28 84 28.56 84 0 84 C0 56.28 0 28.56 0 0 Z " fill="#3366FF" transform="translate(0,0)"/>
<path d="M0 0 C2.9719385 1.12451727 5.33440687 2.22293791 8 4 C8.39872742 6.25259399 8.39872742 6.25259399 8.43237305 9.09228516 C8.46206429 10.68370834 8.46206429 10.68370834 8.49235535 12.30728149 C8.49874527 13.45626923 8.50513519 14.60525696 8.51171875 15.7890625 C8.52966995 16.96262299 8.54762115 18.13618347 8.56611633 19.3453064 C8.62043422 23.10516736 8.65418448 26.86489985 8.6875 30.625 C8.72065403 33.1692888 8.75514187 35.71356059 8.79101562 38.2578125 C8.87617298 44.50509313 8.94443156 50.75238995 9 57 C10.13179687 56.4225 11.26359375 55.845 12.4296875 55.25 C13.91135207 54.49979009 15.39312873 53.74980153 16.875 53 C17.62136719 52.6184375 18.36773437 52.236875 19.13671875 51.84375 C19.85214844 51.4828125 20.56757812 51.121875 21.3046875 50.75 C21.96452637 50.41484375 22.62436523 50.0796875 23.30419922 49.734375 C25 49 25 49 27 49 C26.67 46.69 26.34 44.38 26 42 C25.37351562 42.28875 24.74703125 42.5775 24.1015625 42.875 C23.28429687 43.24625 22.46703125 43.6175 21.625 44 C20.81289063 44.37125 20.00078125 44.7425 19.1640625 45.125 C17 46 17 46 15 46 C15 33.79 15 21.58 15 9 C20 11 20 11 23 13 C23.06656948 14.95339815 23.11793317 16.9095846 23.06079102 18.86328125 C22.96173327 22.65054919 22.89827376 26.34611409 24 30 C26.44354421 32.21299865 26.44354421 32.21299865 29.5625 33.5 C32.5859375 34.91015625 32.5859375 34.91015625 35 37 C36.47243216 42.48752364 35.62023416 48.43042253 35 54 C31.39788595 55.88776541 27.78671445 57.75677161 24.16625977 59.60913086 C22.93676073 60.24144928 21.7098246 60.87877773 20.4855957 61.52124023 C18.72253154 62.44536359 16.94923827 63.34988777 15.17578125 64.25390625 C14.11270752 64.80377197 13.04963379 65.3536377 11.9543457 65.92016602 C8.64563439 67.12952311 7.27903715 67.19166908 4 66 C1.88063049 64.82904053 1.88063049 64.82904053 0 63 C-0.48101807 60.24751282 -0.48101807 60.24751282 -0.45410156 56.8762207 C-0.45379944 55.61513992 -0.45349731 54.35405914 -0.45318604 53.05476379 C-0.43275946 51.67842987 -0.41189548 50.30210239 -0.390625 48.92578125 C-0.38316348 47.51760155 -0.37747013 46.10941145 -0.37347412 44.70121765 C-0.35821038 40.99705271 -0.31892336 37.29351638 -0.2746582 33.58959961 C-0.23372076 29.80916854 -0.21546644 26.02863577 -0.1953125 22.24804688 C-0.15242883 14.83174484 -0.0841698 7.41596054 0 0 Z " fill="#F7F8FF" transform="translate(26,8)"/>
</svg>
