
<svg xmlns="http://www.w3.org/2000/svg" style="isolation:isolate" viewBox="1123.044 453.491 93.911 147.019" width="93.911" height="147.019"><path d="M1180.143 521.337l13.335 6.129 14.22 6.536c5.109 2.348 9.258 8.82 9.258 14.443v22.788c0 5.623-4.149 12.095-9.258 14.443l-14.22 6.536-14.221 6.536c-5.109 2.349-13.405 2.349-18.515 0l-14.22-6.536-14.22-6.536c-5.109-2.348-9.258-8.82-9.258-14.443v-22.788c0-.683.062-1.378.178-2.078v-77.698c0-4.691 3.622-9.676 8.083-11.125l11.25-3.655c4.461-1.45 8.082 1.182 8.082 5.872v65.813l.022-.01c-.015.013-.023.02-.022.021l15.884 17.805-25.053.554a6.006 6.006 0 00-.836.012c-.87.101-1.626.401-2.264.898-.761.654-.849 1.286-.268 1.897l40.08 42.608c.678.629 1.679.866 3.008.712.183-.021.501-.086.953-.195.762-.229 1.316-.562 1.661-.998.344-.435.399-.865.164-1.291l-15.19-29.716 26.129-1.527c.187.006.463-.012.83-.055.825-.095 1.517-.33 2.077-.706.776-.515 1.011-1.093.704-1.736l-18.373-32.51z" fill-rule="evenodd" fill="#012690"/></svg>
